<svg id="Icons" viewBox="0 0 60 60" xmlns="http://www.w3.org/2000/svg"><path d="m44 37 1.849.264c2.956.422 5.151 2.954 5.151 5.94v12.796c0 1.657-1.343 3-3 3h-36c-1.657 0-3-1.343-3-3v-12.796c0-2.986 2.196-5.517 5.151-5.94l1.849-.264z" fill="#2b56af"/><path d="m28 59c-12-17-7-24-7-24h18s5 7-7 24z" fill="#fff"/><path d="m34 59c11-13 10-22 10-22-2-2-5-2-5-2s0 12-9 24c-9-12-9-24-9-24s-3 0-5 2c0 0-1 9 10 22z" fill="#2b56af"/><path d="m33.11 54.27c-.89 1.56-1.92 3.14-3.11 4.73-1.19-1.59-2.22-3.17-3.11-4.73-.62-9.18 2.11-10.27 2.11-10.27l1-1 1 1s2.73 1.09 2.11 10.27z" fill="#cc3a52"/><path d="m33.16 39.91v.01c-.16 3.08-2.16 4.08-2.16 4.08h-2s-2-1-2.16-4.08l.002-.009c.859-3.24 5.458-3.241 6.318 0z" fill="#ea4458"/><path d="m35 33s2 0 4 2l-4.614 5.536c-.184.221-.523.219-.695-.011-.489-.654-1.608-1.831-3.691-2.525-2.083.694-3.202 1.871-3.691 2.525-.172.23-.511.232-.695.011l-4.614-5.536c2-2 4-2 4-2z" fill="#edf3f7"/><g fill="#ced7dd"><path d="m11.42 21h-.42c-2.21 0-4-1.79-4-4v-2c0-2.21 1.79-4 4-4h.42z"/><path d="m48.58 11h.42c2.21 0 4 1.79 4 4v2c0 2.21-1.79 4-4 4h-.42z"/><path d="m25 28v5l5 5 5-5v-5z"/></g><rect fill="#e4eaef" height="26" rx="11" width="38" x="11" y="3"/><rect fill="#2b56af" height="14" rx="7" width="30" x="15" y="9"/><path d="m36.12 7.666c.851-1.153 1.877-2.905 1.88-4.657.002-1.105-.895-2.009-2-2.009h-12.001c-1.105 0-2.002.904-2 2.009.003 1.753 1.029 3.505 1.88 4.657.625.847 1.622 1.334 2.675 1.334h6.89c1.053 0 2.05-.487 2.675-1.334z" fill="#ced7dd"/><circle cx="22" cy="16" fill="#71ffe4" r="2"/><circle cx="38" cy="16" fill="#71ffe4" r="2"/><path d="m19 16c0 1.654 1.346 3 3 3s3-1.346 3-3-1.346-3-3-3-3 1.346-3 3zm4 0c0 .552-.448 1-1 1s-1-.448-1-1 .448-1 1-1 1 .448 1 1z" fill="#262626"/><path d="m38 19c1.654 0 3-1.346 3-3s-1.346-3-3-3-3 1.346-3 3 1.346 3 3 3zm0-4c.552 0 1 .448 1 1s-.448 1-1 1-1-.448-1-1 .448-1 1-1z" fill="#262626"/><path d="m38 30c5.225 0 9.668-3.362 11.312-8.031 2.609-.164 4.688-2.318 4.688-4.969v-2c0-2.65-2.079-4.804-4.688-4.969-1.556-4.42-5.621-7.655-10.482-7.99-.146-.43-.378-.829-.709-1.161-.568-.567-1.321-.88-2.121-.88h-12.001c-.8 0-1.553.313-2.12.881-.331.332-.563.731-.709 1.161-4.861.335-8.926 3.57-10.482 7.989-2.609.164-4.688 2.318-4.688 4.969v2c0 2.65 2.079 4.804 4.688 4.969 1.644 4.67 6.087 8.031 11.312 8.031h2v2.146c-.844.201-2.112.704-3.396 1.872-.92.07-3.244.412-5.049 2.035l-1.545.22c-3.426.49-6.01 3.47-6.01 6.931v2.796c0 .553.447 1 1 1s1-.447 1-1v-2.796c0-2.472 1.846-4.601 4.293-4.95l.692-.099c.107 2.823 1.223 10.134 8.91 19.845h-11.894c-1.103 0-2-.897-2-2v-6c0-.553-.447-1-1-1s-1 .447-1 1v6c0 2.206 1.794 4 4 4h36c2.206 0 4-1.794 4-4v-12.796c0-3.461-2.584-6.44-6.01-6.931l-1.545-.22c-1.805-1.622-4.129-1.965-5.049-2.035-1.284-1.169-2.552-1.672-3.396-1.872v-2.146h2zm14-15v2c0 1.361-.916 2.5-2.16 2.866.096-.61.16-1.229.16-1.866v-4c0-.636-.064-1.256-.16-1.866 1.244.366 2.16 1.505 2.16 2.866zm-28.706-12.706c.189-.189.44-.294.705-.294h12.001c.265 0 .516.104.705.294.19.191.295.444.295.713-.003 1.478-.917 3.026-1.685 4.065-.43.581-1.129.928-1.871.928h-6.89c-.742 0-1.441-.347-1.87-.929-.768-1.037-1.683-2.585-1.686-4.064 0-.269.104-.521.295-.713zm3.261 7.706h11.445c3.309 0 6 2.691 6 6s-2.691 6-6 6h-16c-3.309 0-6-2.691-6-6s2.691-6 6-6zm-18.555 7v-2c0-1.361.916-2.5 2.16-2.866-.096.61-.16 1.229-.16 1.866v4c0 .636.064 1.256.16 1.865-1.244-.366-2.16-1.505-2.16-2.865zm4 1v-4c0-5.211 4.01-9.5 9.105-9.955.27 1.512 1.052 2.915 1.787 3.955h-.892c-4.411 0-8 3.589-8 8s3.589 8 8 8h16c4.411 0 8-3.589 8-8s-3.589-8-8-8h-.892c.735-1.041 1.518-2.444 1.787-3.955 5.095.455 9.105 4.743 9.105 9.955v4c0 5.514-4.486 10-10 10h-16c-5.514 0-10-4.486-10-10zm12.634 16.048 3.615 3.615c-1.054.551-1.801 1.194-2.291 1.725l-3.568-4.282c.944-.727 1.785-.972 2.244-1.057zm1.363 7.651c.052-.001.101-.014.152-.021.329 1.094.854 1.865 1.343 2.372-.693.926-1.451 2.69-1.644 6.013-2.227-4.872-3.165-9.201-3.56-11.954l2.556 3.067c.286.344.718.515 1.152.523zm1.879 12.28c-.422-6.77 1.052-8.625 1.415-8.98h1.393c.427.408 1.855 2.298 1.439 8.98-.637 1.098-1.341 2.207-2.124 3.319-.783-1.112-1.486-2.222-2.124-3.319zm12.078-17.875c.836.146 2.07.5 3.065 1.351.022 1.723-.438 9.679-9.496 20.545h-1.583c6.603-9.595 7.8-18.778 8.014-21.896zm-5.803 13.959c-.193-3.327-.952-5.09-1.646-6.016.486-.506 1.006-1.276 1.337-2.371.053.007.105.021.16.022h.038c.432 0 .836-.189 1.114-.522l2.556-3.067c-.395 2.754-1.333 7.082-3.56 11.954zm-3.438-7.063h-1.424c-.367-.269-1.193-1.061-1.402-2.697.489-.425 1.172-.885 2.113-1.242.941.356 1.624.816 2.113 1.242-.21 1.643-1.043 2.434-1.4 2.697zm-13.733-5.545c.996-.851 2.23-1.204 3.066-1.351.214 3.118 1.411 12.301 8.014 21.896h-1.583c-9.062-10.872-9.518-18.829-9.497-20.545zm33.021 5.749v12.796c0 1.103-.897 2-2 2h-11.894c7.686-9.711 8.803-17.022 8.91-19.845l.692.099c2.447.35 4.293 2.479 4.293 4.95zm-15.958-3.816c-.49-.531-1.237-1.174-2.291-1.725l3.614-3.614c.463.086 1.304.332 2.245 1.057zm-.042-6.802-4 4-4-4v-2.586h8z" fill="#262626"/></svg>